<svg width="500" height="63" viewBox="0 0 500 63" fill="none" xmlns="http://www.w3.org/2000/svg">
<path d="M0 0L4.86391 55.1615L26.6888 62.4364L48.6531 55.1615L53.517 0H0ZM42.9529 17.825H17.3373L17.9087 24.7098H42.3815L40.4861 45.3918L26.8421 49.1547V49.1966H26.6888L12.9333 45.3918L12.0971 34.8278H18.7449L19.2327 40.1377L26.6888 42.1585L34.1728 40.1377L35.009 31.4691H11.7486L9.96475 11.1772H43.5662L42.9529 17.825Z" fill="black"/>
<path d="M288.006 21.7783C287.329 21.5525 286.651 21.3393 285.974 21.1386C286.087 20.6745 286.187 20.2104 286.287 19.7463C287.83 12.2707 286.814 6.26257 283.39 4.28077C280.091 2.38677 274.71 4.35603 269.267 9.09729C268.727 9.56138 268.2 10.0506 267.699 10.5397C267.36 10.2136 267.009 9.8875 266.658 9.57393C260.951 4.50654 255.231 2.37423 251.807 4.36857C248.52 6.27511 247.542 11.932 248.922 19.0063C249.06 19.7087 249.21 20.3986 249.386 21.101C248.583 21.3268 247.793 21.5776 247.053 21.841C240.355 24.1615 235.551 27.824 235.551 31.612C235.551 35.5255 240.668 39.4514 247.63 41.8346C248.194 42.0228 248.759 42.2109 249.336 42.374C249.148 43.1265 248.984 43.8666 248.834 44.6317C247.517 51.5931 248.545 57.112 251.832 59.006C255.218 60.9627 260.913 58.9559 266.457 54.1017C266.896 53.7129 267.335 53.3115 267.774 52.885C268.326 53.4244 268.903 53.9386 269.48 54.4404C274.848 59.0562 280.154 60.9251 283.428 59.0311C286.814 57.0744 287.918 51.1415 286.488 43.9168C286.375 43.3649 286.25 42.8004 286.112 42.2234C286.513 42.1106 286.902 41.9851 287.291 41.8597C294.528 39.464 299.771 35.5882 299.771 31.612C299.771 27.8115 294.829 24.1238 288.006 21.7783ZM271.035 11.1293C275.701 7.06532 280.054 5.47236 282.035 6.61377C284.155 7.83045 284.97 12.7473 283.641 19.207C283.553 19.6334 283.465 20.0474 283.352 20.4613C280.568 19.8341 277.746 19.3826 274.911 19.1317C273.28 16.7987 271.499 14.5661 269.568 12.4714C270.057 12.0073 270.533 11.5683 271.035 11.1293ZM256.523 38.1219C257.163 39.2131 257.815 40.3044 258.505 41.3705C256.548 41.1573 254.604 40.8437 252.685 40.4298C253.237 38.6236 253.926 36.7547 254.729 34.8481C255.306 35.9519 255.896 37.0432 256.523 38.1219ZM252.722 23.0326C254.529 22.6312 256.448 22.3051 258.442 22.0542C257.777 23.0953 257.125 24.1615 256.51 25.2402C255.896 26.3063 255.294 27.3976 254.729 28.5014C253.939 26.6325 253.274 24.8012 252.722 23.0326ZM256.159 31.6748C256.987 29.9438 257.89 28.2505 258.843 26.5823C259.797 24.9141 260.825 23.296 261.904 21.703C263.785 21.5651 265.704 21.4898 267.661 21.4898C269.618 21.4898 271.549 21.5651 273.418 21.703C274.484 23.2835 275.5 24.9015 276.466 26.5572C277.432 28.2129 278.335 29.9062 279.188 31.6246C278.348 33.3555 277.445 35.0614 276.479 36.7421C275.526 38.4104 274.51 40.0284 273.443 41.6339C271.575 41.7719 269.63 41.8346 267.661 41.8346C265.692 41.8346 263.785 41.7719 261.941 41.659C260.85 40.066 259.822 38.4355 258.856 36.7672C257.89 35.099 256.999 33.4057 256.159 31.6748ZM278.812 38.0968C279.452 36.993 280.054 35.8767 280.643 34.7478C281.446 36.5665 282.148 38.4104 282.763 40.3044C280.819 40.7434 278.849 41.082 276.868 41.3078C277.545 40.2542 278.185 39.1755 278.812 38.0968ZM280.618 28.5014C280.029 27.3976 279.426 26.2938 278.799 25.2151C278.185 24.1489 277.545 23.0953 276.88 22.0542C278.9 22.3051 280.831 22.6438 282.637 23.0577C282.06 24.9141 281.383 26.7203 280.618 28.5014ZM267.686 14.3905C269.003 15.8204 270.245 17.3255 271.399 18.8809C268.915 18.768 266.419 18.768 263.936 18.8809C265.165 17.2628 266.432 15.7576 267.686 14.3905ZM253.136 6.70157C255.243 5.47236 259.922 7.22838 264.851 11.5934C265.165 11.8693 265.479 12.1703 265.805 12.4714C263.861 14.5661 262.067 16.7987 260.424 19.1317C257.589 19.3826 254.779 19.8216 251.995 20.4362C251.832 19.7965 251.694 19.1443 251.556 18.492C250.377 12.4212 251.154 7.84299 253.136 6.70157ZM250.063 39.765C249.536 39.6145 249.022 39.4514 248.508 39.2758C245.836 38.4355 242.801 37.1059 240.606 35.3624C239.339 34.4844 238.486 33.1297 238.248 31.612C238.248 29.3167 242.211 26.3816 247.931 24.3873C248.646 24.1364 249.373 23.9106 250.101 23.6974C250.954 26.4192 251.982 29.0909 253.174 31.6748C251.97 34.2962 250.929 37.0055 250.063 39.765ZM264.688 52.0572C262.619 53.9512 260.223 55.4563 257.614 56.4849C256.222 57.1497 254.616 57.2124 253.186 56.6479C251.192 55.494 250.364 51.0663 251.493 45.1083C251.631 44.4059 251.782 43.7035 251.957 43.0137C254.767 43.6157 257.602 44.0296 260.474 44.2429C262.13 46.5884 263.948 48.8336 265.893 50.9409C265.491 51.3297 265.09 51.706 264.688 52.0572ZM267.761 49.0092C266.482 47.6295 265.203 46.0992 263.961 44.4561C265.165 44.5063 266.407 44.5314 267.661 44.5314C268.953 44.5314 270.22 44.5063 271.474 44.4436C270.32 46.0365 269.078 47.5542 267.761 49.0092ZM284.155 52.7721C284.042 54.3024 283.29 55.7323 282.086 56.6981C280.091 57.8521 275.839 56.3469 271.248 52.4084C270.722 51.9568 270.195 51.4677 269.655 50.9659C271.575 48.8462 273.343 46.601 274.949 44.2429C277.821 44.0046 280.681 43.5655 283.503 42.9259C283.628 43.4401 283.741 43.9544 283.842 44.4561C284.456 47.1654 284.557 49.9876 284.155 52.7721ZM286.438 39.2884C286.087 39.4013 285.736 39.5141 285.372 39.6145C284.494 36.8801 283.415 34.2084 282.173 31.612C283.378 29.0533 284.393 26.4192 285.246 23.7225C285.899 23.9106 286.526 24.1113 287.128 24.312C292.973 26.3189 297.074 29.3041 297.074 31.587C297.074 34.0454 292.697 37.2188 286.438 39.2884ZM267.661 37.4069C270.834 37.4069 273.406 34.8356 273.406 31.6622C273.406 28.4888 270.834 25.9175 267.661 25.9175C264.488 25.9175 261.916 28.4888 261.916 31.6622C261.916 34.8356 264.488 37.4069 267.661 37.4069Z" fill="black"/>
<path d="M366.226 24.443C366.226 21.6264 364.246 20.0715 360.767 20.0715H354.367V29.1459H359.764C363.928 29.1332 366.226 27.4508 366.226 24.443ZM389.525 22.8116C388.319 18.8735 388.141 14.0431 388.281 10.3088C388.42 6.42162 385.398 2.85303 381.335 2.85303H339.588C335.513 2.85303 332.504 6.43436 332.643 10.3088C332.77 14.0431 332.605 18.8735 331.399 22.8116C330.18 26.7626 328.136 29.2606 324.771 29.5792V33.2115C328.123 33.5302 330.18 36.0282 331.399 39.9791C332.605 43.9173 332.783 48.7477 332.643 52.4819C332.504 56.3692 335.525 59.9377 339.588 59.9377H381.323C385.398 59.9377 388.408 56.3564 388.268 52.4819C388.141 48.7477 388.306 43.9173 389.512 39.9791C390.731 36.0282 392.775 33.5302 396.127 33.2115V29.5792C392.788 29.2606 390.731 26.7626 389.525 22.8116ZM361.998 46.581H349.568V16.2098H361.935C367.432 16.2098 371.038 19.1921 371.038 23.7803C371.038 27.0047 368.613 29.8851 365.515 30.3822V30.5478C369.731 31.0067 372.562 33.938 372.562 37.9782C372.562 43.3438 368.588 46.581 361.998 46.581ZM360.729 32.7272H354.367V42.7193H361.008C365.35 42.7193 367.648 40.9732 367.648 37.685C367.648 34.4096 365.287 32.7272 360.729 32.7272Z" fill="black"/>
<path d="M78.517 0L83.3809 55.1615L105.275 62.4364L127.17 55.1615L132.034 0H78.517ZM122.153 11.1494L121.484 17.7414L105.415 24.6122L105.373 24.6262H120.912L119.129 45.0574L105.443 49.0572L91.6732 44.9877L90.7813 34.6884H97.5963L98.0423 40.0262L105.373 41.8798L112.996 39.7335L113.512 31.1485L90.3353 31.0788V31.0649L90.3074 31.0788L89.8057 24.6262L105.429 18.1177L106.335 17.7414H89.2064L88.3981 11.1494H122.153Z" fill="black"/>
<path d="M210.21 1.84999C209.962 1.58027 209.614 1.42651 209.248 1.42651H158.337C157.971 1.42651 157.623 1.58027 157.375 1.84999C157.128 2.11971 157.007 2.48195 157.039 2.84549L161.626 54.219C161.674 54.7559 162.048 55.208 162.566 55.3566L183.428 61.3152C183.544 61.3478 183.665 61.3647 183.785 61.3647C183.904 61.3647 184.026 61.3478 184.142 61.3152L205.021 55.3566C205.54 55.208 205.914 54.7559 205.962 54.219L210.546 2.84549C210.578 2.48195 210.456 2.11971 210.21 1.84999ZM166.853 36.6128L175.974 39.1433V13.1536H181.186V47.0317L166.853 43.0562V36.6128ZM200.802 27.4866L199.428 43.4484L186.398 47.0317V41.0365L195.194 38.6195L195.519 33.7332L186.398 35.3046V13.1536H202.035L201.585 18.3656H191.61V28.7896L200.802 27.4866Z" fill="black"/>
<path fill-rule="evenodd" clip-rule="evenodd" d="M460.373 7.84961C449.906 7.84961 443.368 13.0497 440.75 23.4537C444.675 18.2537 449.255 16.3031 454.486 17.6022C457.473 18.3439 459.608 20.4985 461.966 22.8807C465.816 26.7621 470.271 31.2558 479.996 31.2558C490.463 31.2558 497.001 26.0557 499.619 15.6517C495.694 20.8517 491.118 22.8022 485.883 21.5032C482.896 20.7615 480.761 18.6069 478.398 16.2247C474.552 12.3393 470.102 7.84961 460.373 7.84961ZM440.75 31.2558C430.283 31.2558 423.745 36.4558 421.127 46.8599C425.052 41.6559 429.632 39.7093 434.863 41.0083C437.85 41.7501 439.985 43.9047 442.347 46.2869C446.193 50.1683 450.648 54.662 460.377 54.662C470.844 54.662 477.382 49.4619 480 39.0578C476.075 44.2579 471.495 46.2084 466.264 44.9094C463.277 44.1676 461.142 42.013 458.783 39.6308C454.93 35.7494 450.475 31.2558 440.75 31.2558Z" fill="black"/>
</svg>
