<svg width="678" height="76" viewBox="0 0 678 76" fill="none" xmlns="http://www.w3.org/2000/svg">
<path d="M0 13L4.86391 68.1615L26.6888 75.4364L48.6531 68.1615L53.517 13H0ZM42.9529 30.825H17.3373L17.9087 37.7098H42.3815L40.4861 58.3918L26.8421 62.1547V62.1966H26.6888L12.9333 58.3918L12.0971 47.8278H18.7449L19.2327 53.1377L26.6888 55.1585L34.1728 53.1377L35.009 44.4691H11.7486L9.96475 24.1772H43.5662L42.9529 30.825Z" fill="black"/>
<path d="M276.455 36.59C276.455 33.7734 274.475 32.2185 270.996 32.2185H264.596V41.2929H269.993C274.157 41.2802 276.455 39.5978 276.455 36.59ZM299.754 34.9586C298.548 31.0205 298.37 26.1901 298.51 22.4558C298.649 18.5686 295.627 15 291.564 15H249.817C245.742 15 242.733 18.5813 242.872 22.4558C242.999 26.1901 242.834 31.0205 241.628 34.9586C240.409 38.9096 238.365 41.4076 235 41.7262V45.3585C238.352 45.6772 240.409 48.1752 241.628 52.1261C242.834 56.0643 243.012 60.8947 242.872 64.6289C242.733 68.5162 245.754 72.0847 249.817 72.0847H291.552C295.627 72.0847 298.637 68.5034 298.497 64.6289C298.37 60.8947 298.535 56.0643 299.741 52.1261C300.96 48.1752 303.004 45.6772 306.356 45.3585V41.7262C303.017 41.4076 300.96 38.9096 299.754 34.9586ZM272.227 58.728H259.797V28.3568H272.164C277.661 28.3568 281.267 31.3391 281.267 35.9273C281.267 39.1517 278.842 42.0321 275.744 42.5292V42.6948C279.96 43.1537 282.791 46.085 282.791 50.1252C282.791 55.4908 278.817 58.728 272.227 58.728ZM270.958 44.8742H264.596V54.8663H271.237C275.579 54.8663 277.877 53.1202 277.877 49.832C277.877 46.5566 275.516 44.8742 270.958 44.8742Z" fill="black"/>
<path d="M78.517 13L83.3809 68.1615L105.275 75.4364L127.17 68.1615L132.034 13H78.517ZM122.153 24.1494L121.484 30.7414L105.415 37.6122L105.373 37.6262H120.912L119.129 58.0574L105.443 62.0572L91.6732 57.9877L90.7813 47.6884H97.5963L98.0423 53.0262L105.373 54.8798L112.996 52.7335L113.512 44.1485L90.3353 44.0788V44.0649L90.3074 44.0788L89.8057 37.6262L105.429 31.1177L106.335 30.7414H89.2064L88.3981 24.1494H122.153Z" fill="black"/>
<path d="M210.21 14.85C209.962 14.5803 209.614 14.4265 209.248 14.4265H158.337C157.971 14.4265 157.623 14.5803 157.375 14.85C157.128 15.1197 157.007 15.482 157.039 15.8455L161.626 67.219C161.674 67.7559 162.048 68.208 162.566 68.3566L183.428 74.3152C183.544 74.3478 183.665 74.3647 183.785 74.3647C183.904 74.3647 184.026 74.3478 184.142 74.3152L205.021 68.3566C205.54 68.208 205.914 67.7559 205.962 67.219L210.546 15.8455C210.578 15.482 210.456 15.1197 210.21 14.85ZM166.853 49.6128L175.974 52.1433V26.1536H181.186V60.0317L166.853 56.0562V49.6128ZM200.802 40.4866L199.428 56.4484L186.398 60.0317V54.0365L195.194 51.6195L195.519 46.7332L186.398 48.3046V26.1536H202.035L201.585 31.3656H191.61V41.7896L200.802 40.4866Z" fill="black"/>
<path fill-rule="evenodd" clip-rule="evenodd" d="M370.246 21C359.779 21 353.241 26.2001 350.623 36.6041C354.548 31.4041 359.128 29.4535 364.359 30.7526C367.346 31.4943 369.481 33.6489 371.839 36.0311C375.689 39.9125 380.144 44.4062 389.869 44.4062C400.336 44.4062 406.874 39.2061 409.492 28.8021C405.567 34.0021 400.991 35.9526 395.756 34.6536C392.769 33.9119 390.634 31.7573 388.271 29.3751C384.425 25.4897 379.975 21 370.246 21ZM350.623 44.4062C340.156 44.4062 333.618 49.6062 331 60.0103C334.925 54.8063 339.505 52.8597 344.736 54.1587C347.723 54.9005 349.858 57.0551 352.22 59.4373C356.066 63.3187 360.521 67.8124 370.25 67.8124C380.717 67.8124 387.255 62.6123 389.873 52.2082C385.948 57.4083 381.368 59.3588 376.137 58.0598C373.15 57.318 371.015 55.1634 368.656 52.7812C364.803 48.8998 360.348 44.4062 350.623 44.4062Z" fill="black"/>
<g clip-path="url(#clip0_2_20)">
<path d="M432.808 30.27H447.012C451.181 30.305 454.202 31.507 456.075 33.874C457.948 36.241 458.566 39.474 457.93 43.573C457.683 45.446 457.135 47.283 456.287 49.085C455.474 50.887 454.344 52.512 452.895 53.961C451.128 55.798 449.238 56.964 447.224 57.459C445.21 57.954 443.125 58.201 440.97 58.201H434.61L432.596 68.271H425.229L432.808 30.27ZM439.009 36.312L435.829 52.212C436.041 52.247 436.253 52.265 436.465 52.265C436.712 52.265 436.96 52.265 437.207 52.265C440.599 52.3 443.426 51.965 445.687 51.258C447.948 50.516 449.468 47.937 450.245 43.52C450.881 39.81 450.245 37.672 448.337 37.107C446.464 36.542 444.115 36.277 441.288 36.312C440.864 36.347 440.458 36.365 440.069 36.365C439.716 36.365 439.345 36.365 438.956 36.365L439.009 36.312Z" fill="black"/>
<path d="M466.322 20.147H473.636L471.569 30.27H478.141C481.745 30.341 484.43 31.083 486.197 32.496C487.999 33.909 488.529 36.595 487.787 40.552L484.236 58.201H476.816L480.208 41.347C480.561 39.58 480.455 38.326 479.89 37.584C479.325 36.842 478.106 36.471 476.233 36.471L470.35 36.418L466.004 58.201H458.69L466.322 20.147Z" fill="black"/>
<path d="M495.641 30.27H509.845C514.014 30.305 517.035 31.507 518.908 33.874C520.781 36.241 521.399 39.474 520.763 43.573C520.516 45.446 519.968 47.283 519.12 49.085C518.307 50.887 517.177 52.512 515.728 53.961C513.961 55.798 512.071 56.964 510.057 57.459C508.043 57.954 505.958 58.201 503.803 58.201H497.443L495.429 68.271H488.062L495.641 30.27ZM501.842 36.312L498.662 52.212C498.874 52.247 499.086 52.265 499.298 52.265C499.545 52.265 499.793 52.265 500.04 52.265C503.432 52.3 506.259 51.965 508.52 51.258C510.781 50.516 512.301 47.937 513.078 43.52C513.714 39.81 513.078 37.672 511.17 37.107C509.297 36.542 506.948 36.277 504.121 36.312C503.697 36.347 503.291 36.365 502.902 36.365C502.549 36.365 502.178 36.365 501.789 36.365L501.842 36.312Z" fill="black"/>
</g>
<path d="M544 62.6781H548.415V45.4061L555.249 60.4687C556.055 62.2845 557.159 62.9369 559.324 62.9369C561.488 62.9369 562.549 62.2916 563.357 60.4687L570.192 45.4061V62.6846H574.607V45.4346C574.607 43.7518 573.926 42.9379 572.526 42.5177C569.173 41.4801 566.923 42.3776 565.905 44.6214L559.198 59.4869L552.702 44.6149C551.726 42.3711 549.434 41.4736 546.081 42.5112C544.679 42.9321 544 43.7459 544 45.4281V62.6781ZM578.276 48.6149H582.689V58.1348C582.648 58.6523 582.857 59.8663 585.275 59.9032C586.509 59.9227 594.798 59.9032 594.875 59.9032V48.5675H599.298C599.318 48.5675 599.293 64.0238 599.294 64.0899C599.318 67.9018 594.522 68.7299 592.311 68.7941H578.372V65.8499L592.336 65.8493C595.177 65.551 594.842 64.1522 594.842 63.6807V62.5329H585.46C581.094 62.494 578.315 60.6049 578.28 58.4324C578.277 58.2379 578.374 48.7082 578.277 48.6142L578.276 48.6149Z" fill="black"/>
<path d="M602.701 62.6781H615.393C616.878 62.6781 618.322 62.3701 619.469 61.8364C621.38 60.9674 622.313 59.7891 622.313 58.2463V55.0492C622.313 53.7866 621.252 52.6089 619.173 51.8236C618.069 51.4021 616.711 51.1784 615.395 51.1784H610.046C608.264 51.1784 607.414 50.6453 607.202 49.4676C607.16 49.3276 607.16 49.2082 607.16 49.0746V47.0838C607.16 46.9716 607.16 46.8587 607.202 46.7187C607.414 45.8211 607.882 45.5682 609.452 45.4217C609.58 45.4217 609.749 45.3931 609.877 45.3931H622.484V42.4768H610.089C608.306 42.4768 607.373 42.589 606.523 42.8413C603.889 43.6552 602.743 44.9521 602.743 47.1959V49.7484C602.743 51.7121 604.994 53.3949 608.77 53.7873C609.195 53.8151 609.619 53.843 610.043 53.843H614.628C614.798 53.843 614.968 53.843 615.095 53.8716C616.495 53.9838 617.091 54.236 617.515 54.7406C617.777 55 617.855 55.2464 617.855 55.5187V58.0712C617.855 58.3799 617.643 58.7729 617.218 59.1088C616.836 59.446 616.2 59.6698 615.35 59.7262C615.18 59.7262 615.053 59.7541 614.884 59.7541H602.701V62.671V62.6781ZM649.852 57.6017C649.852 60.603 652.102 62.2858 656.644 62.6224C657.067 62.6549 657.492 62.6735 657.917 62.6781H669.421V59.7612H657.832C655.243 59.7612 654.266 59.116 654.266 57.5732V42.4827H649.852V57.6004L649.852 57.6017ZM625.13 57.7535V47.3548C625.13 44.7129 627.001 43.1104 630.702 42.6046C631.096 42.5487 631.494 42.5206 631.893 42.5203H640.273C640.685 42.5205 641.098 42.5487 641.507 42.6046C645.207 43.1104 647.079 44.7122 647.079 47.3548V57.7535C647.079 59.8967 646.284 61.0439 644.452 61.7917L648.8 65.6826H643.674L640.156 62.5348L636.614 62.7573H631.893C631.085 62.7573 630.234 62.6444 629.298 62.3915C626.485 61.6328 625.13 60.1711 625.13 57.7535ZM629.895 57.4941C629.895 57.6348 629.937 57.7749 629.98 57.9441C630.242 59.1529 631.383 59.8274 633.12 59.8274H637.131L633.448 56.5311H638.573L641.779 59.4058C642.372 59.0933 642.761 58.6147 642.892 58.0005C642.934 57.8605 642.934 57.7197 642.934 57.579V47.6084C642.934 47.4962 642.934 47.349 642.892 47.2148C642.63 46.0909 641.488 45.4444 639.786 45.4444H633.128C631.165 45.4444 629.896 46.2874 629.896 47.6084V57.5018L629.895 57.4941Z" fill="black"/>
<path d="M667.618 35.4677C665.761 35.4179 664.342 35.5888 663.129 36.0957C662.784 36.24 662.235 36.2435 662.178 36.6719C662.368 36.8685 662.398 37.1623 662.548 37.4042C662.838 37.869 663.327 38.4917 663.763 38.8175C664.239 39.1739 664.73 39.5557 665.242 39.865C666.151 40.4145 667.166 40.7283 668.041 41.2783C668.557 41.6023 669.069 42.0107 669.573 42.3773C669.821 42.5584 669.989 42.8398 670.311 42.953V42.9006C670.141 42.6862 670.098 42.3915 669.942 42.1682L669.255 41.4878C668.584 40.6001 667.732 39.8291 666.826 39.1841C666.104 38.6701 664.486 37.9759 664.185 37.1424L664.132 37.09C664.645 37.0323 665.244 36.849 665.718 36.7238C666.512 36.513 667.221 36.5671 668.042 36.3576L669.151 36.0433V35.8338C668.736 35.4122 668.441 34.8542 667.989 34.473C666.807 33.4743 665.516 32.4778 664.187 31.6455C663.45 31.1839 662.539 30.8847 661.757 30.4937C661.494 30.3623 661.033 30.294 660.859 30.0747C660.449 29.5563 660.226 28.8985 659.909 28.2992C659.246 27.0342 658.595 25.652 658.008 24.3209C657.607 23.4132 657.345 22.5179 656.846 21.7034C654.448 17.7956 651.866 15.4369 647.868 13.119C647.017 12.6264 645.993 12.4311 644.91 12.1767L643.167 12.072C642.812 11.9255 642.443 11.4949 642.11 11.2863C640.785 10.4563 637.388 8.65288 636.406 11.02C635.787 12.5172 637.332 13.9779 637.885 14.7369C638.273 15.2696 638.77 15.8657 639.047 16.4645C639.229 16.8577 639.261 17.2523 639.417 17.6687C639.8 18.6896 640.135 19.8094 640.631 20.7571C640.882 21.2365 641.159 21.7416 641.476 22.1703C641.671 22.4336 642.005 22.5494 642.057 22.956C641.731 23.4087 641.712 24.11 641.529 24.6835C640.703 27.2633 641.015 30.4693 642.215 32.3788C642.584 32.9647 643.451 34.2217 644.645 33.7397C645.688 33.318 645.451 32.0131 645.754 30.8608C645.821 30.5989 645.78 30.408 645.913 30.2327V30.2851L646.863 32.1693C647.566 33.2923 648.816 34.4663 649.874 35.2586C650.422 35.6692 650.859 36.3794 651.564 36.6195V36.5671H651.511C651.373 36.3541 651.158 36.2666 650.982 36.0966C650.569 35.6949 650.109 35.1956 649.767 34.7357C648.805 33.4405 647.955 32.0237 647.18 30.5479C646.81 29.8434 646.488 29.0662 646.177 28.3494C646.057 28.0729 646.058 27.6552 645.807 27.5118C645.466 28.0374 644.962 28.4617 644.698 29.0822C644.275 30.0738 644.221 31.2829 644.064 32.5373C643.972 32.5701 644.013 32.5475 643.959 32.5896C643.223 32.4139 642.964 31.6633 642.691 31.0192C642 29.3903 641.872 26.7688 642.48 24.8948C642.637 24.4101 643.349 22.8823 643.061 22.4344C642.923 21.9875 642.47 21.7243 642.216 21.3869C641.902 20.9653 641.588 20.4086 641.371 19.9213C640.805 18.6518 640.54 17.227 639.945 15.9429C639.66 15.3295 639.179 14.709 638.783 14.1675C638.345 13.5638 637.855 13.1182 637.516 12.392C637.395 12.1323 637.231 11.7173 637.41 11.4497C637.427 11.3728 637.466 11.3023 637.522 11.2466C637.578 11.191 637.649 11.1524 637.727 11.1354C638.033 10.9015 638.887 11.2131 639.206 11.3449C640.052 11.6938 640.76 12.0258 641.477 12.4967C641.822 12.7187 642.17 13.1608 642.586 13.2824H643.061C643.804 13.4519 644.637 13.3357 645.331 13.5443C646.559 13.914 647.659 14.4897 648.659 15.1147C651.703 17.0197 654.192 19.7318 655.894 22.9711C656.168 23.4917 656.287 23.9893 656.528 24.5415C657.015 25.6511 657.628 26.8021 658.112 27.8913C658.596 28.9788 659.066 30.0751 659.75 30.9797C660.109 31.4547 661.496 31.7103 662.126 31.974C662.568 32.1591 663.292 32.3522 663.711 32.6021C664.51 33.0801 665.285 33.6496 666.035 34.1733C666.41 34.4352 667.562 35.0091 667.62 35.4819L667.618 35.4677Z" fill="black"/>
<path fill-rule="evenodd" clip-rule="evenodd" d="M644.011 15.5239C643.624 15.5168 643.35 15.5656 643.06 15.6287V15.681H643.113C643.298 16.0574 643.624 16.2993 643.852 16.6234L644.38 17.7224L644.433 17.67C644.76 17.4414 644.91 17.0761 644.908 16.5182C644.777 16.3814 644.758 16.2101 644.644 16.0468C644.493 15.8293 644.196 15.7059 644.01 15.523L644.011 15.5239Z" fill="black"/>
<path fill-rule="evenodd" clip-rule="evenodd" d="M671.493 59.6782C671.493 61.6042 673.029 62.9025 674.746 62.9025C676.464 62.9025 677.999 61.6042 677.999 59.6782C677.999 57.7521 676.464 56.4539 674.746 56.4539C673.029 56.4539 671.493 57.7521 671.493 59.6782ZM677.27 59.6782C677.27 61.1399 676.143 62.232 674.745 62.232C673.332 62.232 672.219 61.1399 672.219 59.6782C672.219 58.2165 673.33 57.1244 674.745 57.1244C676.142 57.1244 677.27 58.2165 677.27 59.6782ZM675.622 61.5186H676.35L675.283 59.9026C675.856 59.8423 676.289 59.5666 676.289 58.8961C676.289 58.1477 675.811 57.839 674.893 57.839H673.443V61.5193H674.068V59.9285H674.649L675.621 61.5193L675.622 61.5186ZM674.068 59.411V58.354H674.788C675.161 58.354 675.612 58.4227 675.612 58.8533C675.612 59.3688 675.205 59.4123 674.736 59.4123H674.068V59.411Z" fill="black"/>
<defs>
<clipPath id="clip0_2_20">
<rect width="100" height="50" fill="white" transform="translate(425.229 19.147)"/>
</clipPath>
</defs>
</svg>
